#!OML:ASF E:\VariousWalksJay\Project 1\Capture day 1\Session 1\Actor2.ASF
:FULLY-SPECIFIED
:DEGREES
1149
root 1.76256 17.5041 6.86421 208.331 -29.5814 -184.292
lowerback -4.04077 -6.59679 -1.22754
upperback -5.32387 -9.11582 0.0112616
thorax -3.06475 -4.66109 0.565313
lowerneck -17.8825 3.95794 -1.75863
upperneck -10.7592 3.98625 5.46851
head -0.635814 1.35191 2.25697
rclavicle 1.98785e-016 -9.54166e-015
rhumerus 5.39835 3.84184 -15.2031
rradius 133.077
rwrist -18.092
rhand 6.08096 -6.57864
rfingers 7.12502
rthumb 31.4005 -33.903
lclavicle 1.98785e-016 -9.54166e-015
lhumerus 49.7144 -16.0345 31.4532
lradius 78.0386
lwrist 18.807
lhand 7.53951 -2.11355
lfingers 7.12502
lthumb 32.7891 24.9309
rfemur -54.8009 -2.27201 18.7901
rtibia 71.9542
rfoot -20.1073 0.547187
rtoes -28.4638
lfemur 28.2702 11.3261 -16.8957
ltibia 40.2006
lfoot -12.315 6.54636
ltoes -28.2873
1150
root 1.74128 17.3665 6.69538 208.45 -29.9593 -186.217
lowerback -3.71376 -6.747 -2.56887
upperback -5.15703 -9.35299 -1.00321
thorax -3.0359 -4.76468 0.280438
lowerneck -17.5465 3.50776 -2.11589
upperneck -10.192 3.57002 6.07648
head -0.497262 1.21871 2.50427
rclavicle 2.98177e-015 -4.37326e-014
rhumerus 8.25348 0.51187 -10.3751
rradius 130.851
rwrist -17.3838
rhand 4.17653 -6.82551
rfingers 7.12502
rthumb 29.5842 -34.4873
lclavicle 2.98177e-015 -4.37326e-014
lhumerus 48.705 -20.8972 29.6638
lradius 80.6992
lwrist 18.4875
lhand 15.0719 -0.580012
lfingers 7.12502
lthumb 39.9193 24.6703
rfemur -53.1369 -2.23765 19.1985
rtibia 67.8127
rfoot -20.7445 -0.428215
rtoes -23.1679
lfemur 30.8604 9.79304 -15.7951
ltibia 45.8983
lfoot -11.8199 6.56647
ltoes -27.7379
1151
root 1.71816 17.2319 6.51899 208.669 -30.6545 -187.896
lowerback -3.50065 -6.82811 -3.46531
upperback -5.02022 -9.5251 -1.96143
thorax -3.03805 -4.85802 -0.194053
lowerneck -17.134 3.04056 -2.43322
upperneck -9.78421 3.10639 6.60924
head -0.41578 1.04804 2.71684
rclavicle -9.48203e-014 3.10104e-014
rhumerus 10.7427 -2.35164 -5.50224
rradius 128.022
rwrist -16.4936
rhand 2.55802 -6.88053
rfingers 7.12502
rthumb 28.0381 -34.8056
lclavicle -9.48203e-014 3.10104e-014
lhumerus 48.072 -25.7769 27.9742
lradius 83.5439
lwrist 18.2219
lhand 21.8231 0.750854
lfingers 7.12502
lthumb 46.2295 23.7492
rfemur -51.259 -2.50877 19.9188
rtibia 64.0434
rfoot -22.2742 -2.41509
rtoes -17.2326
lfemur 32.7571 8.00208 -14.204
ltibia 52.0066
lfoot -11.229 6.8944
ltoes -27.0257
1152
root 1.69322 17.1054 6.3359 209.022 -31.5525 -189.314
lowerback -3.43437 -6.82511 -3.92187
upperback -4.92871 -9.59936 -2.86778
thorax -3.06993 -4.92223 -0.862635
lowerneck -16.654 2.5628 -2.68747
upperneck -9.54597 2.60087 7.05383
head -0.393889 0.840877 2.88587
rclavicle -3.53837e-014 -1.35174e-014
rhumerus 12.9448 -4.60034 -0.576608
rradius 124.566
rwrist -15.5
rhand 0.957501 -6.70106
rfingers 7.12502
rthumb 26.5072 -34.8668
lclavicle -3.53837e-014 -1.35174e-014
lhumerus 47.807 -30.625 26.2681
lradius 86.5443
lwrist 18.0458
lhand 27.6149 1.87945
lfingers 7.12502
lthumb 51.5504 22.2484
rfemur -49.3126 -2.8477 20.7891
rtibia 60.7019
rfoot -24.5932 -5.21709
rtoes -11.2269
lfemur 33.8493 6.04275 -12.1563
ltibia 58.4856
lfoot -10.585 7.22925
ltoes -26.7615
1153
root 1.67005 16.9889 6.15286 209.519 -32.5648 -190.462
lowerback -3.5038 -6.73845 -3.97179
upperback -4.89099 -9.56865 -3.72038
thorax -3.13887 -4.95074 -1.705
lowerneck -16.115 2.08896 -2.88737
upperneck -9.52535 2.07281 7.4472
head -0.448664 0.603828 3.0269
rclavicle 2.68359e-014 -2.06736e-014
rhumerus 14.9273 -6.15718 4.36531
rradius 120.483
rwrist -14.4759
rhand -0.856375 -6.25067
rfingers 7.12502
rthumb 24.7699 -34.6667
lclavicle 2.68359e-014 -2.06736e-014
lhumerus 47.9 -35.3649 24.4395
lradius 89.6706
lwrist 18.0073
lhand 32.3571 2.85376
lfingers 7.12502
lthumb 55.8127 20.3878
rfemur -47.4781 -2.98347 21.6216
rtibia 57.8479
rfoot -27.4189 -8.33297
rtoes -4.77725
lfemur 34.0463 3.98967 -9.6905
ltibia 65.3091
lfoot -9.9886 7.27834
ltoes -45.1003
1154
root 1.64471 16.9033 5.96122 210.132 -33.5796 -191.405
lowerback -3.58628 -6.57259 -3.7399
upperback -4.89549 -9.44023 -4.52767
thorax -3.27832 -4.94123 -2.65145
lowerneck -15.5802 1.63309 -3.03346
upperneck -9.76682 1.53664 7.79864
head -0.586319 0.340371 3.14606
rclavicle 2.52457e-014 1.28812e-013
rhumerus 16.7789 -7.0461 9.23872
rradius 115.809
rwrist -13.4481
rhand -3.09618 -5.55834
rfingers 7.12502
rthumb 22.6217 -34.2527
lclavicle 2.52457e-014 1.28812e-013
lhumerus 48.3308 -39.8941 22.4225
lradius 92.8832
lwrist 18.1221
lhand 36.0414 3.69635
lfingers 7.12502
lthumb 59.0407 18.4458
rfemur -45.7264 -2.72649 22.2447
rtibia 55.3942
rfoot -30.3599 -11.6504
rtoes 1.00423
lfemur 33.356 1.94548 -6.94845
ltibia 72.3142
lfoot -9.43028 6.84157
ltoes -43.8126
1155
root 1.63616 16.8173 5.80559 210.757 -34.5096 -192.13
lowerback -3.53131 -6.32329 -3.29595
upperback -4.9176 -9.21059 -5.2918
thorax -3.52945 -4.8873 -3.65401
lowerneck -15.0613 1.21099 -3.14232
upperneck -10.356 1.01363 8.146
head -0.835888 0.0556908 3.26335
rclavicle -3.598e-014 -2.8625e-014
rhumerus 18.5544 -7.3525 13.9194
rradius 110.617
rwrist -12.4018
rhand -5.80148 -4.67183
rfingers 7.12502
rthumb 20.0232 -33.6601
lclavicle -3.598e-014 -2.8625e-014
lhumerus 49.0781 -44.125 20.1651
lradius 96.1474
lwrist 18.3584
lhand 38.7954 4.41544
lfingers 7.12502
lthumb 61.3893 16.6495
rfemur -44.3581 -1.97206 22.6274
rtibia 53.4351
rfoot -32.9208 -14.9751
rtoes 5.68075
lfemur 31.8535 -0.0126616 -3.93364
ltibia 79.596
lfoot -9.16256 5.76328
ltoes -42.5296
1156
root 1.63929 16.7557 5.67085 211.298 -35.2713 -192.627
lowerback -3.21322 -5.99643 -2.7449
upperback -4.91976 -8.88347 -6.0062
thorax -3.89934 -4.7849 -4.64394
lowerneck -14.6041 0.843788 -3.22411
upperneck -11.3626 0.528476 8.50999
head -1.21689 -0.24406 3.39432
rclavicle -6.67916e-014 1.59028e-014
rhumerus 20.2702 -7.24714 18.2748
rradius 105.048
rwrist -11.3068
rhand -8.83115 -3.70115
rfingers 7.12502
rthumb 17.109 -32.9678
lclavicle -6.67916e-014 1.59028e-014
lhumerus 50.0865 -47.9565 17.6551
lradius 99.4082
lwrist 18.6105
lhand 40.7713 4.967
lfingers 7.12502
lthumb 63.0314 15.1146
rfemur -43.239 -0.750137 22.7661
rtibia 51.7711
rfoot -34.7776 -18.1568
rtoes 8.32387
lfemur 29.6136 -1.77398 -0.683448
ltibia 86.9726
lfoot -9.14058 3.99305
ltoes -47.3961
1157
root 1.65568 16.7234 5.55731 211.665 -35.8269 -192.917
lowerback -2.51449 -5.61172 -2.18267
upperback -4.86616 -8.48101 -6.67348
thorax -4.39942 -4.63984 -5.56891
lowerneck -14.2592 0.543048 -3.27172
upperneck -12.7977 0.0903276 8.8803
head -1.7304 -0.558399 3.54109
rclavicle -1.90833e-014 -3.81667e-014
rhumerus 21.9247 -6.90538 22.1685
rradius 99.2424
rwrist -10.0876
rhand -12.0339 -2.76513
rfingers 7.12502
rthumb 14.0243 -32.272
lclavicle -1.90833e-014 -3.81667e-014
lhumerus 51.27 -51.3227 14.9179
lradius 102.6
lwrist 18.785
lhand 42.1112 5.32336
lfingers 7.12502
lthumb 64.1205 13.8997
rfemur -42.279 0.673489 22.761
rtibia 50.3417
rfoot -35.9566 -20.51
rtoes 10.3405
lfemur 26.7169 -3.28508 2.78861
ltibia 94.3504
lfoot -9.39021 1.54829
ltoes -47.3961
1158
root 1.68462 16.7238 5.46138 211.759 -36.2233 -192.907
lowerback -1.42717 -5.19101 -1.56912
upperback -4.72953 -8.01671 -7.26282
thorax -5.00553 -4.45681 -6.42984
lowerneck -14.0282 0.311137 -3.29492
upperneck -14.6621 -0.302815 9.24417
head -2.38607 -0.89156 3.70901
rclavicle -8.0309e-014 -7.15625e-014
rhumerus 23.5077 -6.49747 25.4954
rradius 93.3201
rwrist -8.6866
rhand -15.1513 -1.95076
rfingers 7.12502
rthumb 11.0188 -31.6416
lclavicle -8.0309e-014 -7.15625e-014
lhumerus 52.488 -54.1762 12.0513
lradius 105.658
lwrist 18.8574
lhand 43.0183 5.47101
lfingers 7.12502
lthumb 64.845 12.9038
rfemur -41.3547 1.97238 22.8814
rtibia 48.915
rfoot -36.4682 -22.0492
rtoes 12.0721
lfemur 23.1912 -4.48851 6.67387
ltibia 101.583
lfoot -9.86692 -1.53153
ltoes -40.7602
1159
root 1.72435 16.7579 5.37778 211.545 -36.5368 -192.503
lowerback -0.0463898 -4.75142 -0.822177
upperback -4.49869 -7.49077 -7.74278
thorax -5.65702 -4.23737 -7.26159
lowerneck -13.7345 0.144603 -3.40354
upperneck -17.294 -0.572503 9.89808
head -2.91144 -1.2395 3.67584
rclavicle 5.92378e-014 -2.54444e-014
rhumerus 25.0161 -6.17369 28.1603
rradius 87.3668
rwrist -7.14694
rhand -17.8606 -1.37609
rfingers 7.12502
rthumb 8.40487 -31.1889
lclavicle 5.92378e-014 -2.54444e-014
lhumerus 53.6055 -56.4757 9.18034
lradius 108.53
lwrist 18.9278
lhand 43.6268 5.50334
lfingers 7.12502
lthumb 65.3247 12.1301
rfemur -40.3685 2.89626 23.3587
rtibia 47.3389
rfoot -36.3946 -22.6913
rtoes 13.5614
lfemur 18.9834 -5.28606 11.2507
ltibia 108.539
lfoot -10.5425 -5.15068
ltoes -39.1994
